<?xml version="1.0" encoding="utf-8"?>
<svg viewBox="0 0 50.303 44.772" xmlns="http://www.w3.org/2000/svg">
  <g id="server" style="" transform="matrix(0.784188, 0, 0, 1, 0, 0)">
    <rect x="1.343" y="1.572" width="60.563" height="16.718" style="fill: rgb(255, 255, 255);"/>
    <rect x="1.343" y="26.499" width="60.563" height="16.718" style="fill: rgb(255, 255, 255);"/>
    <path d="M 28.146 33.786 L 8.146 33.786 C 7.601 33.786 7.16 34.227 7.16 34.772 C 7.16 35.317 7.601 35.758 8.146 35.758 L 28.146 35.758 C 28.691 35.758 29.132 35.317 29.132 34.772 C 29.132 34.227 28.691 33.786 28.146 33.786 Z" style="paint-order: fill;"/>
    <path d="M 60.146 24.772 L 4.146 24.772 C 1.937 24.772 0.146 26.563 0.146 28.772 L 0.146 40.772 C 0.146 42.981 1.937 44.772 4.146 44.772 L 60.146 44.772 C 62.355 44.772 64.146 42.981 64.146 40.772 L 64.146 28.772 C 64.146 26.563 62.355 24.772 60.146 24.772 Z M 62.146 40.772 C 62.146 41.875 61.249 42.772 60.146 42.772 L 4.146 42.772 C 3.043 42.772 2.146 41.875 2.146 40.772 L 2.146 28.772 C 2.146 27.669 3.043 26.772 4.146 26.772 L 60.146 26.772 C 61.249 26.772 62.146 27.669 62.146 28.772 L 62.146 40.772 Z" style="paint-order: fill;"/>
    <circle style="" transform="matrix(0.074802, 0, 0, 0.058659, -15.784006, -3.912085)" cx="907" cy="658" r="52.630789467763066"/>
    <path d="M 28.146 9.014 L 8.146 9.014 C 7.601 9.014 7.16 9.455 7.16 10 C 7.16 10.545 7.601 10.986 8.146 10.986 L 28.146 10.986 C 28.691 10.986 29.132 10.545 29.132 10 C 29.132 9.455 28.691 9.014 28.146 9.014 Z" style="paint-order: fill;"/>
    <path d="M 60.146 0 L 4.146 0 C 1.937 0 0.146 1.791 0.146 4 L 0.146 16 C 0.146 18.209 1.937 20 4.146 20 L 60.146 20 C 62.355 20 64.146 18.209 64.146 16 L 64.146 4 C 64.146 1.791 62.355 0 60.146 0 Z M 62.146 16 C 62.146 17.103 61.249 18 60.146 18 L 4.146 18 C 3.043 18 2.146 17.103 2.146 16 L 2.146 4 C 2.146 2.897 3.043 2 4.146 2 L 60.146 2 C 61.249 2 62.146 2.897 62.146 4 L 62.146 16 Z" style="paint-order: fill;"/>
    <circle style="" transform="matrix(0.074802, 0, 0, 0.058659, -15.784007, -28.684084)" cx="907" cy="658" r="52.630789467763066"/>
  </g>
</svg>