<?xml version="1.0" ?><!DOCTYPE svg  PUBLIC '-//W3C//DTD SVG 1.1//EN'  'http://www.w3.org/Graphics/SVG/1.1/DTD/svg11.dtd'><svg enable-background="new 0 0 30 30" height="30px" id="Layer_1" version="1.1" viewBox="0 0 30 30" width="30px" xml:space="preserve" xmlns="http://www.w3.org/2000/svg" xmlns:xlink="http://www.w3.org/1999/xlink"><g><g><g><path d="M26.25,7.277c0.646,0.938,1.018,2.393,1.188,2.995c-0.131-0.734-0.338-1.446-0.594-2.135     c0.195,0.084-0.318-1.51,0.256-0.454c-0.611-2.25-2.617-4.352-4.461-5.338c0.223,0.206,0.51,0.466,0.408,0.505     c-0.918-0.544-0.756-0.588-0.887-0.818c-0.75-0.305-0.801,0.024-1.293,0.001c-1.408-0.747-1.682-0.669-2.977-1.136l0.061,0.275     c-0.934-0.311-1.088,0.117-2.098,0.002c-0.061-0.048,0.324-0.174,0.641-0.221c-0.902,0.119-0.861-0.178-1.744,0.033     c0.219-0.153,0.449-0.254,0.682-0.385c-0.736,0.045-1.758,0.43-1.443,0.08c-1.199,0.535-3.332,1.287-4.527,2.408l-0.037-0.25     C8.875,3.499,7.035,4.806,6.887,5.657L6.74,5.691C6.455,6.175,6.27,6.723,6.045,7.218C5.672,7.854,5.5,7.464,5.553,7.563     C4.818,9.051,4.451,10.3,4.137,11.326c0.225,0.335,0.006,2.017,0.09,3.364c-0.367,6.655,4.672,13.114,10.18,14.604     c0.807,0.291,2.006,0.279,3.025,0.307c-1.205-0.344-1.357-0.182-2.533-0.59c-0.846-0.398-1.029-0.854-1.629-1.375l0.236,0.418     c-1.176-0.414-0.686-0.514-1.641-0.816l0.254-0.33c-0.383-0.029-1.012-0.643-1.182-0.982l-0.418,0.016     c-0.502-0.617-0.768-1.063-0.748-1.408l-0.135,0.24c-0.154-0.262-1.844-2.318-0.967-1.84c-0.162-0.148-0.377-0.242-0.613-0.67     l0.176-0.203c-0.42-0.543-0.775-1.24-0.748-1.471c0.225,0.305,0.381,0.359,0.535,0.414c-1.064-2.646-1.125-0.146-1.932-2.693     l0.17-0.014c-0.129-0.197-0.209-0.41-0.314-0.621l0.074-0.74c-0.766-0.887-0.213-3.771-0.104-5.353     c0.078-0.645,0.641-1.329,1.07-2.403L6.723,9.135c0.5-0.87,2.85-3.497,3.939-3.362c0.527-0.662-0.104-0.002-0.207-0.17     c1.158-1.198,1.525-0.848,2.307-1.063c0.844-0.5-0.727,0.195-0.324-0.191c1.459-0.372,1.033-0.846,2.936-1.035     c0.199,0.113-0.465,0.178-0.633,0.324c1.213-0.594,3.844-0.458,5.553,0.33c1.98,0.926,4.209,3.666,4.295,6.24l0.102,0.027     c-0.051,1.023,0.156,2.209-0.201,3.295l0.24-0.515c0.031,0.782-0.227,1.163-0.459,1.835l-0.422,0.209     c-0.342,0.666,0.035,0.422-0.209,0.95c-0.535,0.475-1.623,1.486-1.971,1.578c-0.254-0.004,0.172-0.299,0.229-0.414     c-0.715,0.49-0.576,0.738-1.668,1.037l-0.033-0.072c-2.695,1.27-6.445-1.246-6.396-4.678c-0.029,0.219-0.082,0.163-0.141,0.251     c-0.141-1.766,0.814-3.539,2.426-4.265c1.576-0.779,3.422-0.46,4.549,0.593c-0.619-0.811-1.854-1.672-3.313-1.592     c-1.432,0.022-2.773,0.934-3.221,1.921c-0.732,0.461-0.816,1.78-1.137,2.022c-0.432,3.159,0.807,4.524,2.902,6.132     c0.166,0.111,0.189,0.176,0.178,0.232c2.473,0.924,5.029,0.699,7.166-1.016c0.547-0.424,1.141-1.146,1.313-1.156     c-0.258,0.391,0.045,0.188-0.154,0.531c0.541-0.875-0.236-0.355,0.561-1.509l0.293,0.403c-0.109-0.727,0.902-1.607,0.799-2.756     c0.232-0.353,0.262,0.378,0.014,1.185c0.342-0.895,0.09-1.039,0.178-1.778c0.096,0.249,0.221,0.513,0.283,0.775     c-0.223-0.866,0.229-1.46,0.342-1.963c-0.113-0.049-0.346,0.383-0.398-0.64c0.008-0.444,0.123-0.232,0.168-0.342     c-0.086-0.051-0.316-0.393-0.453-1.045c0.098-0.154,0.268,0.397,0.406,0.42c-0.09-0.519-0.242-0.915-0.246-1.314     c-0.404-0.838-0.145,0.112-0.469-0.359C25.414,6.859,26.197,7.883,26.25,7.277z"/></g><g><path d="M14.145,17.527c0.277,0.408,0.578,0.803,0.967,1.113c-0.654-0.221-1.535-1.592-1.789-1.646     c1.131,2.027,4.592,3.555,6.404,2.797c-0.838,0.031-1.902,0.018-2.846-0.332c-0.396-0.203-0.934-0.625-0.838-0.703     c-0.014,0.057-0.061,0.107-0.039,0.191C15.309,18.623,14.67,18.131,14.145,17.527z"/></g></g></g></svg>