<svg xmlns="http://www.w3.org/2000/svg" viewBox="0 0 24 24"><path d="M12 2C6.477 2 2 6.477 2 12s4.477 10 10 10 10-4.477 10-10S17.523 2 12 2zm3.5 2a1.5 1.5 0 110 3 1.5 1.5 0 010-3zM12 5.5c.344 0 .68.04 1.008.09A2.496 2.496 0 0015.5 8a2.49 2.49 0 001.285-.363 6.495 6.495 0 011.61 3.218l-3.008.31A3.497 3.497 0 0012 8.5c-.578 0-1.113.152-1.594.402L8.613 6.461A6.459 6.459 0 0112 5.5zM4.5 14a1.5 1.5 0 110-3 1.5 1.5 0 010 3zm1.504.488a2.478 2.478 0 00-.277-4.152A6.5 6.5 0 017.8 7.046l1.785 2.43A3.492 3.492 0 008.5 12c0 1.238.648 2.32 1.621 2.941L8.86 17.687a6.532 6.532 0 01-2.855-3.199zM16.5 19a1.5 1.5 0 110-3 1.5 1.5 0 010 3zm1.11-3.73A2.474 2.474 0 0016.5 15a2.497 2.497 0 00-2.5 2.5c0 .227.04.438.094.648A6.504 6.504 0 0112 18.5a6.507 6.507 0 01-2.23-.402l1.265-2.75c.309.09.63.152.965.152a3.496 3.496 0 003.484-3.34l3.008-.308c0 .05.008.097.008.148a6.456 6.456 0 01-.89 3.27z"/></svg>